<svg xmlns="http://www.w3.org/2000/svg" viewBox="0 0 48.51 46.79"><defs><style>.cls-1{fill:none;stroke:#000;stroke-miterlimit:10;}</style></defs><title>equipment</title><g id="Layer_2" data-name="Layer 2"><g id="Layer_2-2" data-name="Layer 2"><path class="cls-1" d="M19.95,19.1h8.46a1.47,1.47,0,0,1,1.47,1.47V36.51A1.47,1.47,0,0,1,28.41,38H2A1.47,1.47,0,0,1,.5,36.51V29.06A1.47,1.47,0,0,1,2,27.59l15-.1A1.47,1.47,0,0,0,18.4,26l.08-5.49A1.47,1.47,0,0,1,19.95,19.1Z"/><rect class="cls-1" x="4.88" y="40.16" width="30.94" height="6.12" rx="1.34" ry="1.34"/><path class="cls-1" d="M4.25,25.23H14.53a1.53,1.53,0,0,1,1.53,1.53v.78a0,0,0,0,1,0,0H2.88a0,0,0,0,1,0,0V26.6A1.38,1.38,0,0,1,4.25,25.23Z"/><line class="cls-1" x1="5.88" y1="29.66" x2="5.88" y2="34.54"/><line class="cls-1" x1="7.94" y1="29.6" x2="7.94" y2="34.48"/><line class="cls-1" x1="9.94" y1="29.6" x2="9.94" y2="34.48"/><line class="cls-1" x1="11.94" y1="29.54" x2="11.94" y2="34.41"/><line class="cls-1" x1="13.81" y1="29.6" x2="13.81" y2="34.48"/><polyline class="cls-1" points="27.88 19.1 43.88 0.73 47.75 4.48 30.06 24.23"/><polyline class="cls-1" points="47.75 4.48 48 37.91 45.44 37.85 42.88 9.91"/><path class="cls-1" d="M45.44,37.85s-6.31,1-7.44-1.19-1.5.25-.12,2.75,2.5,6.94,5.94,6.81S48.13,43.1,48,37.91"/><line class="cls-1" x1="14.69" y1="40.04" x2="14.63" y2="38.1"/><line class="cls-1" x1="26" y1="39.98" x2="25.94" y2="37.85"/><line class="cls-1" x1="14.81" y1="42.29" x2="26" y2="42.29"/><line class="cls-1" x1="14.81" y1="44.1" x2="26" y2="44.1"/><circle class="cls-1" cx="7.88" cy="43.16" r="1.31"/><circle class="cls-1" cx="33.04" cy="43.35" r="1.31"/><circle class="cls-1" cx="43.92" cy="4.54" r="0.94"/><rect class="cls-1" x="20.75" y="21.48" width="7.06" height="5.81" rx="1.06" ry="1.06"/></g></g></svg>