<svg xmlns="http://www.w3.org/2000/svg" viewBox="0 0 3066.99 810"><defs><style>.cls-1{fill:#91cfb4;}.cls-2{fill:#f4c973;}.cls-3{fill:#f8a44b;}.cls-4{fill:#ed7b49;}.cls-5{fill:#b5715a;}.cls-6{fill:#00b9c8;}</style></defs><title>logo</title><g id="Layer_2" data-name="Layer 2"><g id="Layer_2-2" data-name="Layer 2"><path class="cls-1" d="M24.36,266.38Q87.74,264,151.12,260V89.47A405.94,405.94,0,0,0,24.36,266.38Z"/><path class="cls-2" d="M2.8,357.2c49.44,1.64,98.88,4.18,148.32,7.29V260q-63.38,3.89-126.76,6.36A402.36,402.36,0,0,0,2.8,357.2Z"/><path class="cls-3" d="M0,405A403.76,403.76,0,0,0,28.61,554.76q61.25-2.47,122.51-6.52V364.49c-49.44-3.11-98.88-5.65-148.32-7.29A409.05,409.05,0,0,0,0,405Z"/><path class="cls-4" d="M79.59,646.1q35.76,2.08,71.53,4.65V548.24q-61.25,4-122.51,6.52A404.28,404.28,0,0,0,79.59,646.1Z"/><path class="cls-5" d="M151.12,720.53V650.75q-35.76-2.55-71.53-4.65A407.53,407.53,0,0,0,151.12,720.53Z"/><path class="cls-1" d="M710.34,138.95,625,224.31c46.17-3.11,92.35-5.81,138.52-7.84A406,406,0,0,0,710.34,138.95Z"/><path class="cls-2" d="M625,224.31l-37,37A231.63,231.63,0,0,1,637.69,402c57.41,3.86,114.83,7,172.24,9,0-2,.07-4,.07-6a403.13,403.13,0,0,0-46.5-188.52C717.33,218.51,671.15,221.21,625,224.31Z"/><path class="cls-3" d="M637.72,405a231.52,231.52,0,0,1-25.85,106.63c62.22-4.51,124.44-8.28,186.66-10.65a405.39,405.39,0,0,0,11.4-90c-57.41-2-114.83-5.15-172.24-9C637.7,403,637.72,404,637.72,405Z"/><path class="cls-4" d="M592.69,542.55,715.34,665.2A403.82,403.82,0,0,0,798.53,501c-62.22,2.37-124.44,6.15-186.66,10.65A233.27,233.27,0,0,1,592.69,542.55Z"/><path class="cls-6" d="M644.09,114l20.14-20.14A405.29,405.29,0,0,0,220.63,44.3V81.63C361.79,91.58,502.94,104.85,644.09,114Z"/><path class="cls-1" d="M220.63,255.42c55.41-3.91,110.82-8.33,166.23-12.81V173c6-.46,12-.77,18.13-.77a231.6,231.6,0,0,1,136.51,44.29L644.09,114c-141.15-9.13-282.31-22.41-423.46-32.36Z"/><path class="cls-2" d="M220.63,369.21c55.41,4,110.82,8.54,166.23,13.13V242.61c-55.41,4.48-110.82,8.9-166.23,12.81Z"/><path class="cls-3" d="M220.63,543.4c55.41-4.11,110.82-8.76,166.23-13.47V382.34c-55.41-4.59-110.82-9.12-166.23-13.13Z"/><path class="cls-4" d="M220.63,656.05c143.94,11.64,287.88,26.89,431.82,37.47L547.7,588.77a231.64,231.64,0,0,1-142.7,49c-6.11,0-12.14-.31-18.13-.77v-107c-55.41,4.71-110.82,9.36-166.23,13.47Z"/><path class="cls-5" d="M220.63,765.7a405.32,405.32,0,0,0,449.48-54.52l-17.66-17.66c-143.94-10.57-287.88-25.83-431.82-37.47Z"/><path d="M981.29,555V190.14H1089q48.35,0,85.82,21.55t58,61.14q20.54,39.59,20.55,90.7v18.29q0,51.87-20.67,91.2t-58.88,60.63q-38.21,21.3-87.57,21.3Zm63.39-313.7V504.35H1086q49.86,0,76.55-31.19t27.19-89.58v-20.3q0-59.38-25.81-90.7T1089,241.26Z"/><path d="M1447.49,555q-4-7.76-7-25.31Q1411.41,560,1369.31,560q-40.84,0-66.65-23.3T1276.86,479q0-43.34,32.2-66.52t92.08-23.18h37.33V371.55q0-21-11.78-33.7t-35.83-12.65q-20.8,0-34.08,10.4T1343.51,362h-60.89q0-22.3,14.78-41.72t40.21-30.44q25.43-11,56.75-11,47.6,0,75.92,23.93T1499.36,370V492.32q0,36.58,10.27,58.38V555Zm-66.9-43.85a69.24,69.24,0,0,0,34-8.77q15.91-8.77,23.93-23.55V427.68h-32.82q-33.83,0-50.86,11.78t-17,33.32q0,17.54,11.65,27.94T1380.59,511.11Z"/><path d="M1614.27,218v65.9h47.86V329h-47.86V480.29q0,15.54,6.14,22.42t21.92,6.89a93.77,93.77,0,0,0,21.3-2.5v47.1a150,150,0,0,1-40.09,5.76q-70.16,0-70.16-77.42V329h-44.6v-45.1h44.6V218Z"/><path d="M1845.45,555q-4-7.76-7-25.31Q1809.37,560,1767.28,560q-40.84,0-66.65-23.3T1674.82,479q0-43.34,32.2-66.52t92.08-23.18h37.33V371.55q0-21-11.78-33.7t-35.83-12.65q-20.8,0-34.08,10.4T1741.47,362h-60.89q0-22.3,14.78-41.72t40.21-30.44q25.43-11,56.75-11,47.6,0,75.92,23.93T1897.32,370V492.32q0,36.58,10.27,58.38V555Zm-66.9-43.85a69.24,69.24,0,0,0,34-8.77q15.91-8.77,23.93-23.55V427.68h-32.82q-33.83,0-50.86,11.78t-17,33.32q0,17.54,11.65,27.94T1778.55,511.11Z"/><path d="M2209.18,441.21q-6.27,57.63-41.22,88.2T2074.88,560q-40.59,0-71.79-20.29t-48.23-57.5q-17-37.21-17.29-85.06V349.75q0-48.61,17-86.19t49-58q31.95-20.42,73.54-20.42,58.63,0,92.58,31.57t39.46,87.45h-31.07q-11.53-93-101-93-49.61,0-79.05,37.12t-29.44,102.56V395.5q0,63.19,28.69,100.8t77.55,37.61q48.35,0,72.91-23.18t30.32-69.53Z"/><path d="M2285.51,555h-30.07V170.1h30.07Z"/><path d="M2325.26,415.4q0-39.09,15.16-70.41t42.85-48.73q27.68-17.41,62.77-17.41,54.12,0,87.7,38t33.58,100.6v6.26q0,39.34-15.16,70.78t-42.72,48.48q-27.57,17-62.89,17-53.87,0-87.57-38t-33.7-100.6Zm30.07,8.27q0,48.61,25.18,79.8t66,31.2q40.59,0,65.77-31.2t25.18-82.31V415.4q0-31.07-11.53-56.88t-32.32-40q-20.8-14.15-47.61-14.16-40.09,0-65.4,31.45t-25.31,82.31Z"/><path d="M2778.43,520.63Q2751.37,560,2692,560q-43.35,0-65.9-25.18T2603,460.25V283.85h29.82V456.49q0,77.42,62.64,77.42,65.14,0,82.43-53.87V283.85H2808V555h-29.06Z"/><path d="M2848.75,416.9q0-63.14,28.19-100.6t76.55-37.46q54.87,0,83.69,43.35V170.1H3067V555h-28.06l-1.25-36.08Q3008.86,560,2953,560q-46.86,0-75.54-37.71t-28.69-101.85Zm30.32,5.26q0,51.87,20.8,81.81t58.63,29.94q55.37,0,78.68-48.86V357.77q-23.3-52.86-78.17-52.87-37.84,0-58.88,29.69T2879.07,422.16Z"/></g></g></svg>