<svg xmlns="http://www.w3.org/2000/svg" viewBox="0 0 53.21 34.81"><defs><style>.cls-1{fill:none;stroke:#000;stroke-miterlimit:10;}</style></defs><title>mine</title><g id="Layer_2" data-name="Layer 2"><g id="Layer_2-2" data-name="Layer 2"><path class="cls-1" d="M.65,11.48H52.56l-3.37,13a2.42,2.42,0,0,1-2.34,1.81H6.13a2.13,2.13,0,0,1-2.06-1.59Z"/><path class="cls-1" d="M3.81,11.31l7.24-7.46a1.26,1.26,0,0,1,1.75-.06l6.68,5.95"/><path class="cls-1" d="M18.06,11.39,28.33.89a1.31,1.31,0,0,1,1.83,0L41.65,11.64"/><path class="cls-1" d="M39.81,9.81l3.06-3a1.63,1.63,0,0,1,2.24,0l5,4.62"/><line class="cls-1" x1="3.81" y1="14.06" x2="6.06" y2="24.14"/><line class="cls-1" x1="6.98" y1="17.31" x2="8.56" y2="24.23"/><line class="cls-1" x1="45.9" y1="17.31" x2="44.48" y2="24.39"/><line class="cls-1" x1="49.23" y1="13.73" x2="46.98" y2="24.23"/><line class="cls-1" x1="22.98" y1="31.48" x2="29.73" y2="31.48"/><circle class="cls-1" cx="10.15" cy="31.39" r="2.92"/><circle class="cls-1" cx="18.15" cy="31.39" r="2.92"/><circle class="cls-1" cx="35.06" cy="31.39" r="2.92"/><circle class="cls-1" cx="43.15" cy="31.39" r="2.92"/><circle cx="43.15" cy="31.48" r="1"/><circle cx="35.02" cy="31.48" r="1"/><circle cx="18.21" cy="31.48" r="1"/><circle cx="10.11" cy="31.48" r="1"/></g></g></svg>