<svg xmlns="http://www.w3.org/2000/svg" viewBox="0 0 59.25 37.59"><defs><style>.cls-1{fill:none;stroke:#000;stroke-miterlimit:10;}</style></defs><title>supplier</title><g id="Layer_2" data-name="Layer 2"><g id="Layer_2-2" data-name="Layer 2"><path class="cls-1" d="M.5,10.34H33.34L35.67.5l8.5.08L44,2.75s-5-.33-5.08.33-4.33,22-4.33,22l-34-.25Z"/><line class="cls-1" x1="30.42" y1="25" x2="33.34" y2="10.34"/><line class="cls-1" x1="3.34" y1="13.5" x2="3.34" y2="22.59"/><line class="cls-1" x1="6.5" y1="17.75" x2="6.5" y2="22.75"/><path class="cls-1" d="M42.09,5.67h13L58.75,16V30.59h-5s-.83-4.42-4.33-5.33-5.25.33-7.17,1.5Z"/><polygon class="cls-1" points="45 8.59 53.17 8.67 55.5 15.67 44.84 15.67 45 8.59"/><line class="cls-1" x1="52.92" y1="24.92" x2="57.25" y2="24.92"/><line class="cls-1" x1="55.17" y1="27.5" x2="57.25" y2="27.5"/><rect class="cls-1" x="27.92" y="28.25" width="11.58" height="5.42"/><circle class="cls-1" cx="47.09" cy="32.25" r="4.83"/><circle class="cls-1" cx="47.09" cy="32.25" r="2.33"/><circle class="cls-1" cx="20.25" cy="32.25" r="4.83"/><circle class="cls-1" cx="20.25" cy="32.25" r="2.33"/><circle class="cls-1" cx="8.09" cy="32.25" r="4.83"/><circle class="cls-1" cx="8.09" cy="32.25" r="2.33"/><path class="cls-1" d="M3.42,10.25S5.92,1.42,16.84,1.5s13.83,8.75,13.83,8.75"/></g></g></svg>